<?xml version="1.0" encoding="UTF-8"?>
<svg width="1e3" height="1e3" version="1.1" viewBox="0 0 1e3 1e3" xmlns="http://www.w3.org/2000/svg">
 <path d="m499.2 80.02a21.91 23.9 0 0 0-8.985 2.502l-438.1 239a21.91 23.9 0 0 0 0 42.76l197.1 107.5a26.29 28.68 0 0 1 0.8587-0.5793l189.4-122.5a61.33 38.24 0 0 1-0.7553-5.825 61.33 38.24 0 0 1 61.33-38.24 61.33 38.24 0 0 1 61.33 38.24 61.33 38.24 0 0 1-61.33 38.24 61.33 38.24 0 0 1-7.153-0.2801l-187.8 121.4 185.1 101a21.91 23.9 0 0 0 19.58 0l438.1-239a21.91 23.9 0 0 0 0-42.76l-438.1-239a21.91 23.9 0 0 0-10.59-2.502zm-305.9 399.5v159.7c0 22.1 10.71 46 29.81 68.99l23.07-188.8a35.05 38.24 0 0 1 2.447-9.746zm613.3 0-296.9 162a21.91 23.9 0 0 1-19.58 0l-171-93.28 29.9 244.6c44.56 17.23 96.03 28.03 150.9 28.03 169.4 0 306.7-102.4 306.7-181.6zm-525.7 44.98-35.05 286.8c0 38.24 70.1 38.24 70.1 0z" fill="#3684f1"/>
</svg>
