<?xml version="1.0" encoding="UTF-8"?>
<svg width="1e3" height="1e3" version="1.1" viewBox="0 0 1e3 1e3" xmlns="http://www.w3.org/2000/svg">
 <g fill="#feffff" stroke="#fff" stroke-linecap="round" stroke-linejoin="round" stroke-width="8">
  <path d="m282.3 574.1q11.4-10.98 21.29-12.5 10.07-1.743 20.92 5.052l19.15 12q7.116 4.459 12.49 3.8 5.376-0.6591 11.13-7.796l16.71-20.74 16.27 10.19-18.69 23.19q-16.17 20.07-29.07 23.74-12.72 3.442-25.26-4.414l-24.91-15.61q-7.116-4.459-13.01-3.789-6.064 0.5635-11.64 7.477l-9.705 12.04-16.27-10.19 9.705-12.04q5.571-6.914 4.35-12.04-1.391-5.235-8.337-9.588l-25.08-15.71q-12.54-7.856-13.04-19.58-0.3176-11.95 15.86-32.02l18.69-23.19 16.27 10.19-16.71 20.74q-5.751 7.136-4.689 11.83 0.8931 4.587 8.178 9.152l19.15 12q10.84 6.794 12.29 15.76 1.627 8.739-6.045 22.06z"/>
  <path d="m472.4 482.6-26.09 26.09-63.44-177.6 25.68-25.68z"/>
  <path d="m582.5 273.9q-10.98 11.4-12.5 21.29-1.743 10.07 5.052 20.92l12 19.15q4.459 7.116 3.8 12.49t-7.796 11.13l-20.74 16.71 10.19 16.27 23.19-18.69q20.07-16.17 23.74-29.07 3.442-12.72-4.414-25.26l-15.61-24.91q-4.459-7.116-3.789-13.01 0.5635-6.064 7.477-11.64l12.04-9.705-10.19-16.27-12.04 9.705q-6.914 5.571-12.04 4.35-5.235-1.391-9.587-8.338l-15.71-25.08q-7.856-12.54-19.58-13.04-11.95-0.3176-32.02 15.86l-23.19 18.69 10.19 16.27 20.74-16.71q7.136-5.751 11.83-4.688 4.587 0.8931 9.152 8.178l12 19.15q6.794 10.84 15.76 12.29 8.739 1.627 22.06-6.045z"/>
 </g>
 <path d="m53.58 556 511-511c18.15-18.15 47.62-26.12 56.1-9.408l135.3 266.3c8.488 16.71 8.739 37.96-9.408 56.1l-393.1 393.1c-18.15 18.15-40.07 18.81-56.1 9.408l-253.2-148.4c-16.04-9.397-8.739-37.96 9.408-56.1z" fill="#468ef2"/>
 <g fill="#e09100">
  <rect transform="rotate(-45)" x="-293.8" y="822.7" width="125" height="125" rx="25" ry="25"/>
  <rect transform="rotate(-45)" x="-143.8" y="822.7" width="125" height="125" rx="25" ry="25"/>
  <rect transform="rotate(-45)" x="6.207" y="822.7" width="125" height="125" rx="25" ry="25"/>
  <rect transform="rotate(-45)" x="156.2" y="822.7" width="125" height="125" rx="25" ry="25"/>
  <rect transform="rotate(-45)" x="-293.8" y="972.7" width="125" height="125" rx="25" ry="25"/>
  <rect transform="rotate(-45)" x="-143.8" y="972.7" width="125" height="125" rx="25" ry="25"/>
  <rect transform="rotate(-45)" x="6.207" y="972.7" width="125" height="125" rx="25" ry="25"/>
  <rect transform="rotate(-45)" x="156.2" y="972.7" width="125" height="125" rx="25" ry="25"/>
 </g>
 <g fill="none" stroke="#ffffff" stroke-linecap="round" stroke-width="25">
  <path d="m144.2 583.2 235.7-235.7"/>
  <path d="m232.6 565.5 117.9-117.9"/>
  <path d="m273.8 595 241.6-241.6"/>
  <path d="m285.6 653.9 53.03-53.03"/>
  <path d="m332.7 677.5 176.8-176.8"/>
 </g>
</svg>
