<?xml version="1.0" encoding="UTF-8"?>
<svg width="1e3" height="1e3" version="1.1" viewBox="0 0 1e3 1e3" xmlns="http://www.w3.org/2000/svg">
 <path d="m328.9 80c-17.24 0-31.11 13.38-31.11 30v30h-18.67c-6.894 0-12.44 5.352-12.44 12v216c0 6.648 5.55 12 12.44 12h472.9c6.894 0 12.44-5.352 12.44-12v-216c0-6.648-5.55-12-12.44-12h-18.67v-30c0-16.62-13.88-30-31.11-30h-62.22c-17.24 0-31.11 13.38-31.11 30v30h-31.11v-30c0-16.62-13.88-30-31.11-30h-62.22c-17.24 0-31.11 13.38-31.11 30v30h-31.11v-30c0-16.62-13.88-30-31.11-30zm-186.7 270c-17.24 0-31.11 13.38-31.11 30v30h-18.67c-6.894 0-12.44 5.352-12.44 12v216c0 6.648 5.55 12 12.44 12h472.9c6.894 0 12.44-5.352 12.44-12v-216c0-6.648-5.55-12-12.44-12h-329.8v-30c0-16.62-13.88-30-31.11-30zm497.8 270c-17.24 0-31.11 13.38-31.11 30v30h-174.2c-6.894 0-12.44 5.352-12.44 12v216c0 6.648 5.55 12 12.44 12h472.9c6.894 0 12.44-5.352 12.44-12v-216c0-6.648-5.55-12-12.44-12h-18.67v-30c0-16.62-13.88-30-31.11-30h-62.22c-17.24 0-31.11 13.38-31.11 30v30h-31.11v-30c0-16.62-13.88-30-31.11-30z" fill="#ffe34d"/>
</svg>
