<?xml version="1.0" encoding="UTF-8"?>
<svg width="1600" height="1760" version="1.1" viewBox="0 0 1600 1760" xmlns="http://www.w3.org/2000/svg">
 <g transform="translate(0 757)">
  <g transform="translate(0 -207.3)" fill="#dce7f4">
   <path transform="translate(0 -549.7)" d="m668.1 0a480 360 0 0 0-28.06 120 480 360 0 0 0 480 360 480 360 0 0 0 480-360 480 360 0 0 0-27.99-120z" style="paint-order:stroke fill markers"/>
   <path d="m960 450.3a480 360 0 0 1-480 360 480 360 0 0 1-480-360 480 360 0 0 1 480-360 480 360 0 0 1 480 360z" style="paint-order:stroke fill markers"/>
   <path transform="translate(0 -549.7)" d="m1120 1520a480 360 0 0 0-451.9 240h903.9a480 360 0 0 0-452-240z" style="paint-order:stroke fill markers"/>
  </g>
 </g>
</svg>
