<?xml version="1.0" encoding="UTF-8"?>
<svg width="1e3" height="1e3" version="1.1" viewBox="0 0 1e3 1e3" xmlns="http://www.w3.org/2000/svg">
 <path d="m500 80c-27.43 0-52.74 2.426-76.13 6.79 18.62 23.09 33.92 49.43 33.92 81.32v250.1a16.07 17.11 0 0 1-16.06 17.11h-51.13a16.07 17.11 0 0 1-16.07-17.11v-250.1c0 0.482-1.003-5.495-4.799-12.7-3.795-7.209-9.906-16.23-18.21-25.67-4.133-4.697-8.9-9.568-13.92-14.49-66.9 33.34-110 85.9-135.9 138.1-32.83 66.26-38.31 120.1-39.97 147h-58.57a23.18 24.68 0 0 0-18.97 38.87s7.334 10.68 21.28 23.34c13.95 12.67 35.56 28.89 67.12 44.82 63.13 31.85 165.9 62.44 327.4 62.44 161.5 0 264.3-30.59 327.4-62.44 31.56-15.92 53.17-32.15 67.12-44.82 13.95-12.67 21.28-23.34 21.28-23.34a23.18 24.68 0 0 0-18.97-38.87h-58.57c-1.661-26.87-7.137-80.75-39.97-147-26.62-53.71-71.51-107.9-141.8-141-2.5 2.604-4.973 5.205-7.199 7.735-8.304 9.438-14.41 18.46-18.21 25.67-3.795 7.209-4.816 13.19-4.816 12.7v250.1a16.07 17.11 0 0 1-16.06 17.11h-51.13a16.07 17.11 0 0 1-16.07-17.11v-250.1c0-27.98 11.78-51.71 27.25-72.71-21.73-3.69-45.08-5.722-70.21-5.722zm287.4 480.8c-24.96 9.62-54.3 18.54-88.57 25.86-15.36 80.25-43.99 146.8-72.64 131.2-42.07-22.89-75.73-39.83-126.2-39.83s-84.15 16.94-126.2 39.83c-28.66 15.59-57.28-50.98-72.64-131.2-33.6-7.18-62.42-15.92-87.06-25.32 13.2 94.89 45.02 246.7 117.6 301.8 108.6 82.36 223.2 68.98 336.6 0 76.67-46.64 107.3-204.7 119.1-302.3zm-371.6 188.9c58.9 17.92 109.4 17.92 168.3 0 0 0-16.83 71.68-84.15 71.68s-84.15-71.68-84.15-71.68z" fill="#ff7900"/>
</svg>
